# xmcd
#
# Track frame offsets: 
#        150
#        15059
#        25361
#        41155
#        56645
#        70244
#        84378
#        101706
#        110402
#        126441
#        141745
#        156507
#        172722
#        184503
#        194156
#
# Disc length: 2821 seconds
#
# Revision: 1
# Processed by: cddbd v1.5.2PL0 Copyright (c) Steve Scherf et al.
# Submitted via: ExactAudioCopy v0.99pb4
#
DISCID=d40b030f
DTITLE=Various artist - Od vesnice k vesnici
DYEAR=2006
DGENRE=Country
TTITLE0=K Borkovicum cesta - Lidovka
TTITLE1=Jeste ja se podivam - Lidovka
TTITLE2=Teplice mila nad Metuji - F. Straka/F. Straka
TTITLE3=Ten Stranansky mustek - anonym
TTITLE4=Rimovsky mustek - Lidovka
TTITLE5=Ten Strizovsky kostelicek - Lodovka
TTITLE6=U Trebone v kopach - anonym
TTITLE7=Kdyby byl Bavorov -Lidovka
TTITLE8=Pres dve vesnice - J. Poncar/V. Zeman
TTITLE9=Kdyz jsem ja sel do Chotejcan - anonym
TTITLE10=Chaloupky pod horama - F. Voborsky/J. Dalecky
TTITLE11=Hovoransky potucek - Lidovka
TTITLE12=Trebondska kasarna - Lidovka
TTITLE13=Okolo Ledenic - anonym
TTITLE14=Kdyz jsem k vam chodival pres ty lesy - Lidovka
EXTD=Od vesnice k vesnici (od mestyse k mestysi)
EXTT0=
EXTT1=
EXTT2=
EXTT3=
EXTT4=
EXTT5=
EXTT6=
EXTT7=
EXTT8=
EXTT9=
EXTT10=
EXTT11=
EXTT12=
EXTT13=
EXTT14=
PLAYORDER=
